<svg width="1200" height="600" viewBox="0 0 1200 600" xmlns="http://www.w3.org/2000/svg" role="img" aria-label="Gambling aware ribbon">
	<defs>
		<filter id="glow2">
			<feGaussianBlur stdDeviation="5" result="b"/>
			<feMerge>
				<feMergeNode in="b"/>
				<feMergeNode in="SourceGraphic"/>
			</feMerge>
		</filter>
		<linearGradient id="g2" x1="0" x2="1" y1="0" y2="1">
			<stop offset="0%" stop-color="#ffea00"/>
			<stop offset="100%" stop-color="#11ffee"/>
		</linearGradient>
	</defs>
	<rect width="100%" height="100%" fill="#0a0b10"/>
	<g filter="url(#glow2)">
		<path d="M600 120c-80 0-140 64-140 144 0 60 36 112 88 134l-60 100 84-44 28 56 28-56 84 44-60-100c52-22 88-74 88-134 0-80-60-144-140-144zm0 64c46 0 80 38 80 80s-34 80-80 80-80-38-80-80 34-80 80-80z" fill="url(#g2)" opacity="0.8"/>
		<text x="600" y="520" text-anchor="middle" font-family="Inter, sans-serif" font-weight="700" font-size="36" fill="#9aa0aa">BeGambleAware.org</text>
	</g>
</svg>